<svg class="h-full w-full p-4 pl-0" clip-rule="evenodd" fill-rule="evenodd" stroke-linejoin="round" stroke-miterlimit="2" viewBox="0 0 4353 427" xmlns="http://www.w3.org/2000/svg" xmlns:xlink="http://www.w3.org/1999/xlink"><linearGradient id="a" gradientTransform="matrix(126.865 280.992 -278.487 125.734 160.734 0)" gradientUnits="userSpaceOnUse" x1="0" x2="1" y1="0" y2="0"><stop offset="0" stop-color="#ffffff"></stop><stop offset=".48" stop-color="#ffffff"></stop><stop offset="1" stop-color="#ffffff"></stop></linearGradient><path d="m0 71.023-30.81-71.023h4.985l28.59 65.959 28.589-65.959h4.985l-30.81 71.023z" fill="#fff" fill-rule="nonzero" transform="matrix(4.16667 0 0 4.16667 655.09 65.0487)"></path><path d="m39.788 67.1-15.663-28.213h-24.125l214.929 387.142 211.325-380.65 3.609-6.492h-24.13l-3.204 5.763-12.462 22.45.012-.013-.004.009-.008.004-158.554 285.6-8.559 15.413-8.025 14.458-8.033-14.463zm19.867-3.104 6.225 11.216 141.016 254.009.904 1.621 7.13 12.837 7.125-12.833.9-1.625v.575l141.404-254.704-.388.12 6.229-11.216 13.938-25.109 18.392-33.125 3.204-5.762h-381.609l21.592 38.887zm303.212-25.109-11.367 20.48-1.954 3.516-5.054 9.109-6.229 11.216-115.308 207.7-.9 1.625v-221.354l37.983-11.812 7.392-2.3 58.454-18.18 44.7-13.9zm-258.896 0 58.45 18.18 7.396 2.3 37.983 11.808v221.354l-.904-1.625-115.304-207.696-6.229-11.216-5.054-9.109-1.954-3.516-11.367-20.48-7.721-13.9zm240.517-20.712-66.608 20.712-58.45 18.18-4.5 1.4-4.5-1.4-58.455-18.18-66.604-20.712z" fill="url(#a)" fill-rule="nonzero"></path><g fill="#fff"><path d="m0 70.456h-5.158l-30.564-70.456h4.367l28.776 66.389 28.776-66.389h4.366z" fill-rule="nonzero" transform="matrix(4.16667 0 0 4.16667 677.356 66.2292)"></path><path d="m0 11.343c10.129 0 18.37-8.197 18.37-18.272 0-10.131-8.241-18.374-18.37-18.374h-26.709v36.646zm16.719 29.84-17.167-25.303h-26.261v25.303h-4.536v-71.023h31.245c12.631 0 22.907 10.278 22.907 22.911 0 10.896-7.653 20.216-18.261 22.325l17.52 25.787z" fill-rule="nonzero" transform="matrix(4.16667 0 0 4.16667 1228.83 189.381)"></path><path d="m0-25.203c0-10.321-8.335-18.657-18.653-18.657h-26.993v37.213h26.993c10.318 0 18.653-8.235 18.653-18.556m-18.653-22.626c12.501 0 22.624 10.123 22.624 22.626 0 11.112-7.941 20.243-18.456 22.127l17.463 25.702h-4.762l-17.167-25.303h-26.695v25.303h-3.969v-70.455z" fill-rule="nonzero" transform="matrix(4.16667 0 0 4.16667 1306.55 265.52)"></path><path d="m1388.71456699 65.05357885h18.90001512v295.92940341h-18.90001512z" stroke-width="4.16667"></path><path d="m1389.8937346 66.23274646h16.5416799v293.56690152h-16.5416799z" stroke-width="4.16667"></path><path d="m0 71.023-48.797-63.355v63.355h-4.536v-71.023h4.393l48.796 63.358v-63.358h4.535v71.023z" fill-rule="nonzero" transform="matrix(4.16667 0 0 4.16667 2037.28 65.0487)"></path><path d="m0-57.352v63.904h-3.97v-70.456h3.97l49.22 63.907v-63.907h3.968v70.456h-3.968z" fill-rule="nonzero" transform="matrix(4.16667 0 0 4.16667 1832.78 332.497)"></path><path d="m0 71.023v-66.486h-27.787v-4.537h60.107v4.537h-27.787v66.486z" fill-rule="nonzero" transform="matrix(4.16667 0 0 4.16667 2227.46 65.0487)"></path><path d="m0-70.456v3.97h-27.787v66.486h-3.967v-66.486h-27.787v-3.97z" fill-rule="nonzero" transform="matrix(4.16667 0 0 4.16667 2360.95 359.798)"></path><path d="m0 71.023 9.429-21.631h38.426l9.329 21.631h4.984l-30.811-71.023h-4.982l19.448 44.854h-39.445l-11.361 26.169z" fill-rule="nonzero" transform="matrix(4.16667 0 0 4.16667 1489.43 65.0487)"></path><path d="m0 70.456h-4.366l11.115-25.601h39.691l-19.448-44.855h4.365l30.565 70.456h-4.366l-9.328-21.631h-38.799z" fill-rule="nonzero" transform="matrix(4.16667 0 0 4.16667 1488.66 66.2292)"></path><path d="m-6.86 5.87h17.789l-1.985 4.577-17.79.004z" fill-rule="nonzero" transform="matrix(1.6574 -3.82284 -3.82284 -1.6574 1569.06 238.823)"></path><path d="m0-15.754h4.372l-6.831 15.754h-4.375z" fill-rule="nonzero" transform="matrix(4.16667 0 0 4.16667 1544.72 254.138)"></path><path d="m0 71.023-9.429-21.631h-38.426l-9.329 21.631h-4.984l30.811-71.023h4.982l-19.448 44.854h39.445l11.361 26.169z" fill-rule="nonzero" transform="matrix(4.16667 0 0 4.16667 1030.48 65.0487)"></path><path d="m0 27.193h-38.799l-9.328 21.631h-4.366l30.563-70.455h4.367l-19.449 44.854h39.691l11.116 25.601h-4.366z" fill-rule="nonzero" transform="matrix(4.16667 0 0 4.16667 991.968 156.361)"></path><path d="m-8.943 10.451h17.789l-1.985-4.577-17.79-.004z" fill-rule="nonzero" transform="matrix(-1.6574 -3.82284 -3.82284 1.6574 1009.79 203.809)"></path><path d="m2.464-15.754h4.371l-6.831 15.754h-4.375z" fill-rule="nonzero" transform="matrix(-4.16667 0 0 4.16667 985.458 254.138)"></path><g fill-rule="nonzero" transform="matrix(1.04984 0 0 1.04984 296.251 -9.07291)"><path d="m2146.57 74.947v283.285h197.31v-30.293h-165.79v-252.992z"></path><path d="m2523.19 74.947h-33.57l-123.63 283.285h33.57l31.11-72.868h151.06l31.11 72.868h33.57zm47.9 182.17h-129.78l65.09-149.011z"></path><path d="m2894.9 233.783c0 72.459-42.99 98.659-88.83 98.659h-.41c-45.85 0-88.84-26.2-88.84-98.659v-158.836h-31.52v158.836c0 92.109 54.04 129.362 120.36 129.362h.41c66.31 0 120.35-37.253 120.35-129.362v-158.836h-31.52z"></path><path d="m3197.42 307.061-177.25-232.114h-30.71v283.285h31.12v-232.114l177.25 232.114h30.71v-283.285h-31.12z"></path><path d="m3518.78 100.737c-26.61-22.106-58.95-30.703-93.34-30.703h-.41c-87.19 0-143.27 58.95-143.27 146.146v.409c0 87.606 56.08 146.556 143.27 146.556h.41c36.03 0 67.14-9.007 93.34-30.703l-17.6-23.744c-20.06 16.375-45.85 24.972-75.74 24.972h-.41c-66.72 0-111.34-48.306-111.75-117.081v-.409c0-67.956 45.03-116.671 111.75-116.671h.41c28.66 0 55.27 8.188 75.74 24.972z"></path><path d="m3597.38 202.261v-127.314h-31.52v283.285h31.52v-126.086h176.03v126.086h31.52v-283.285h-31.52v127.314z"></path></g></g></svg>